<?xml version="1.0" standalone="no"?><!DOCTYPE svg PUBLIC "-//W3C//DTD SVG 1.1//EN" "http://www.w3.org/Graphics/SVG/1.1/DTD/svg11.dtd"><svg t="1706799017454" class="icon" viewBox="0 0 1024 1024" version="1.1" xmlns="http://www.w3.org/2000/svg" p-id="4287" xmlns:xlink="http://www.w3.org/1999/xlink" width="64" height="64"><path d="M664.3712 103.936a51.2 51.2 0 0 1 1.2288 11.264V153.6h153.6a51.2 51.2 0 0 1 51.2 51.2v614.4a51.2 51.2 0 0 1-51.2 51.2h-153.6v38.4a51.2 51.2 0 0 1-62.464 49.9712l-409.6-92.16A51.2 51.2 0 0 1 153.6 816.64V207.36a51.2 51.2 0 0 1 39.936-49.9712l409.6-92.16a51.2 51.2 0 0 1 61.2352 38.7072z m-75.5712 43.2128l-358.4 80.64V796.16l358.4 80.64V147.1488z m204.8 83.2512H665.6v563.2h128v-563.2z m-371.2 204.8a38.4 38.4 0 0 1 38.4 38.4v76.8a38.4 38.4 0 1 1-76.8 0v-76.8a38.4 38.4 0 0 1 38.4-38.4z" fill="#F17C0D" p-id="4288"></path></svg>