<?xml version="1.0" standalone="no"?><!DOCTYPE svg PUBLIC "-//W3C//DTD SVG 1.1//EN" "http://www.w3.org/Graphics/SVG/1.1/DTD/svg11.dtd"><svg t="1706799329117" class="icon" viewBox="0 0 1024 1024" version="1.1" xmlns="http://www.w3.org/2000/svg" p-id="5375" xmlns:xlink="http://www.w3.org/1999/xlink" width="64" height="64"><path d="M1024.508-150.803h-1024.999c-83.012 0-150.313 67.122-150.313 149.908v1025.807c0 82.786 67.3 149.908 150.313 149.908h1024.999c83.012 0 150.313-67.122 150.313-149.908v-1025.809c-0.017-82.786-67.3-149.908-150.313-149.908zM1064.589 1024.895c0 22.039-17.979 39.969-40.082 39.969h-1024.999c-22.103 0-40.083-17.93-40.083-39.969v-1025.809c0-22.039 17.979-39.969 40.083-39.969h1025.001c22.103 0 40.082 17.93 40.082 26.164v1039.613z" p-id="5376" fill="#F17C0D"></path><path d="M346.284 645.872v-164.94c0-17.088-15.681-31.069-34.887-31.069v-248.566l13.948-62.106-13.948-124.293h-69.758l-13.948 124.292 13.948 62.106v248.583c-19.145 0-34.887 13.981-34.887 31.069v164.925c-20.422 10.891-34.887 29.904-34.887 52.559v248.551c0 34.16 31.407 62.138 69.758 62.138h69.758c38.351 0 69.758-27.962 69.758-62.138v-248.551c0.065-22.654-14.386-41.684-34.855-52.559zM852.124 201.343c0-61.475-25.535-146.945-65.068-186.447 0 0-24.645 1.215-24.645 24.87s0 130.457 0 130.457c0 17.088-13.414 31.069-29.904 31.069h-179.423c-16.455 0-29.904-13.981-29.904-31.069 0 0 0-105.587 0-130.457s-24.596-24.87-24.596-24.87c-39.548 39.516-65.066 124.989-65.066 186.447 0 86.621 49.113 128.677 119.599 145.619v575.131c0 47.834 37.67 86.993 83.742 86.993h11.925c46.085 0 83.742-39.143 83.742-86.993v-575.114c70.487-16.959 119.599-58.998 119.599-145.635z" p-id="5377" fill="#F17C0D"></path></svg>