<?xml version="1.0" standalone="no"?><!DOCTYPE svg PUBLIC "-//W3C//DTD SVG 1.1//EN" "http://www.w3.org/Graphics/SVG/1.1/DTD/svg11.dtd"><svg t="1706694788035" class="icon" viewBox="0 0 1024 1024" version="1.1" xmlns="http://www.w3.org/2000/svg" p-id="6995" xmlns:xlink="http://www.w3.org/1999/xlink" width="64" height="64"><path d="M867.898754 443.61023c0-50.243148-28.923803-92.688787-69.12-109.114754 1.80459-11.675279 3.038426-23.468066 3.038426-35.579803 0-102.274098-62.413639-191.127082-154.103607-236.292197l0 132.767475c0 17.097443-13.857574 30.955016-30.955016 30.955016s-30.946623-13.857574-30.946623-30.955016L585.811934 9.409049C561.672393 3.458098 536.424918 0 510.262557 0c-25.876984 0-50.830689 3.399344-74.701639 9.207607l0 186.183344c0 17.097443-13.857574 30.955016-30.955016 30.955016-17.131016 0-30.955016-13.857574-30.955016-30.955016L373.650885 62.254164C281.474098 107.284984 218.699541 196.322623 218.699541 298.915672c0 12.237639 1.275803 24.147934 3.04682 35.923934-39.759738 16.65259-68.322623 58.838033-68.322623 108.770623 0 70.144 55.83318 125.691803 120.05141 115.653246 53.499803 97.640918 144.425967 159.483803 237.190295 159.483803s183.631738-61.842885 237.223869-159.483803C811.696262 569.293639 867.898754 514.089967 867.898754 443.61023M331.104525 317.565902c55.78282-11.599738 115.720393-18.65023 179.158033-18.65023 63.773377 0 124.055082 7.14282 180.114885 18.885246 4.482098 9.954623 9.123672 19.514754 14.008656 28.243934-47.028459-11.859934-116.282754-21.596328-193.720656-21.596328-77.572197 0-146.91882 9.761574-193.938885 21.629902C321.737443 337.206557 326.555279 327.755541 331.104525 317.565902M510.665443 661.042361c-69.816656 0-146.230557-40.892852-208.635803-175.271869-12.766426 6.244721-30.862689 16.971541-43.536787 16.971541-61.809311 0-62.992787-115.997377-1.368131-118.204852l7.19318 0.386098c20.051934 9.199213 68.943738 16.753311 133.061246 20.924852-0.067148 1.183475-0.251803 2.308197-0.251803 3.491672 0 25.474098 13.177705 46.10518 29.40223 46.10518 16.232918 0 29.360262-20.631082 29.360262-46.10518 0-0.26859-0.033574-0.512-0.033574-0.763803 17.693377 0.495213 35.965902 0.78059 54.80918 0.78059 18.809705 0 37.090623-0.285377 54.733639-0.78059 0 0.251803-0.016787 0.495213-0.016787 0.763803 0 25.474098 13.127344 46.10518 29.360262 46.10518s29.393836-20.631082 29.393836-46.10518c0-1.183475-0.159475-2.308197-0.201443-3.491672 63.815344-4.137967 112.598033-11.658492 132.834623-20.798951 3.525246-0.184656 6.496525-0.369311 7.478557-0.512 61.700197 2.31659 60.323672 118.204852-1.426885 118.204852-12.724459 0-30.74518-10.710033-43.54518-16.971541C656.87082 620.115934 580.515672 661.042361 510.665443 661.042361" fill="#F17C0D" p-id="6996"></path><path d="M736.247607 698.796066l0 233.153049 0 85.176656 209.475148 0c0-0.428066 0.067148-0.822557 0.067148-1.24223C945.789902 892.835672 836.272262 774.756721 736.247607 698.796066" fill="#F17C0D" p-id="6997"></path><path d="M510.665443 903.621246c-59.954361 0-118.800787-121.788852-169.992393-191.832131l0 220.16 340.018361 0L680.69141 711.68C629.499803 781.723279 570.63659 903.621246 510.665443 903.621246" fill="#F17C0D" p-id="6998"></path><path d="M75.540984 1015.883541c0 0.436459 0.075541 0.822557 0.075541 1.24223l209.542295 0 0-85.176656L285.15882 698.754098C185.058623 774.706361 75.540984 892.802098 75.540984 1015.883541" fill="#F17C0D" p-id="6999"></path><path d="M510.640262 570.183344c29.42741 0 53.399082-22.897311 56.848787-45.207082L453.799869 524.976262C457.266361 547.286033 481.238033 570.183344 510.640262 570.183344" fill="#F17C0D" p-id="7000"></path></svg>